<svg width="16" height="16" viewBox="0 0 16 16" fill="none" xmlns="http://www.w3.org/2000/svg">
<path d="M12.8067 10.0067C12.08 9.96002 11.3333 10.2267 10.78 10.78C9.74 11.82 9.74 13.5067 10.78 14.5534C11.1333 14.9067 11.5667 15.14 12.0267 15.2534C12.28 15.32 12.5467 15.34 12.8133 15.3267C13.4467 15.3 14.0667 15.0467 14.5533 14.56C15.24 13.8734 15.4733 12.9067 15.2533 12.0334C15.1467 11.5734 14.9067 11.14 14.5533 10.7867C14.0733 10.3 13.4467 10.04 12.8067 10.0067ZM14.16 12.6534C14.16 12.7934 14.1067 12.9134 14.0133 13.0067C13.92 13.1 13.8 13.1534 13.66 13.1534H13.1667V13.6734C13.1667 13.8134 13.1133 13.9334 13.02 14.0267C12.9267 14.12 12.8067 14.1734 12.6667 14.1734C12.3933 14.1734 12.1667 13.9467 12.1667 13.6734V13.1534H11.6667C11.3933 13.1534 11.1667 12.9267 11.1667 12.6534C11.1667 12.38 11.3933 12.1534 11.6667 12.1534H12.1667V11.68C12.1667 11.4067 12.3933 11.18 12.6667 11.18C12.94 11.18 13.1667 11.4067 13.1667 11.68V12.1534H13.66C13.94 12.1534 14.16 12.38 14.16 12.6534Z" fill="#FACD66"/>
<path d="M8.15337 8.04675C7.88003 8.04675 7.66003 8.26675 7.66003 8.54009C7.66003 8.81342 7.88003 9.03342 8.15337 9.03342C8.4267 9.03342 8.6467 8.81342 8.6467 8.54009C8.6467 8.26675 8.4267 8.04675 8.15337 8.04675Z" fill="#FACD66"/>
<path d="M4.50664 8.70667C4.23331 8.70667 4.01331 8.92666 4.01331 9.2C4.01331 9.47333 4.23331 9.69333 4.50664 9.69333C4.77997 9.69333 4.99997 9.47333 4.99997 9.2C4.99997 8.92666 4.77997 8.70667 4.50664 8.70667Z" fill="#FACD66"/>
<path d="M10.7934 1.33337H5.20671C5.02004 1.33337 4.84004 1.34004 4.66671 1.36671C2.56671 1.56004 1.33337 2.96671 1.33337 5.20671V10.7934C1.33337 13.0334 2.56671 14.44 4.66671 14.6334C4.84004 14.66 5.02004 14.6667 5.20671 14.6667H9.00004C9.26004 14.6667 9.42671 14.3734 9.32671 14.1334C9.13337 13.6734 9.00004 13.14 9.00004 12.6667C9.00004 10.6467 10.6467 9.00004 12.6667 9.00004C13.1734 9.00004 13.6667 9.10004 14.12 9.30004C14.3667 9.40671 14.6667 9.24004 14.6667 8.97337V5.20671C14.6667 2.78004 13.22 1.33337 10.7934 1.33337ZM9.65337 5.36671V8.54004C9.65337 8.54671 9.64671 8.55337 9.64671 8.56671C9.63337 9.38004 8.97337 10.04 8.15337 10.04C7.32671 10.04 6.66004 9.36671 6.66004 8.54671C6.66004 7.72004 7.33337 7.05337 8.15337 7.05337C8.32671 7.05337 8.49337 7.08671 8.65337 7.14671V6.02004L6.00671 6.74004V9.20671C6.00671 9.21337 6.00004 9.22004 6.00004 9.22671C5.98671 10.04 5.32671 10.6934 4.50671 10.6934C3.68004 10.6934 3.01337 10.02 3.01337 9.20004C3.01337 8.38004 3.68671 7.70671 4.50671 7.70671C4.68004 7.70671 4.84671 7.74004 5.00004 7.80004V6.36004V5.19337C5.00004 4.57337 5.38671 4.07337 5.98004 3.91337L7.96671 3.36671C8.58671 3.20004 8.96671 3.36671 9.18004 3.52671C9.48671 3.76004 9.64004 4.14004 9.64004 4.64671V5.36671H9.65337Z" fill="#FACD66"/>
</svg>
